<svg width="301" height="86" viewBox="0 0 301 86" fill="none" xmlns="http://www.w3.org/2000/svg">
<path d="M0.4 84V-5.72205e-06H19.96L54.76 57.12H44.44L78.28 -5.72205e-06H97.84L98.08 84H76.24L76 33.24H79.72L54.4 75.72H43.84L17.8 33.24H22.36V84H0.4ZM207.774 85.08C202.254 85.08 196.854 84.44 191.574 83.16C186.374 81.88 182.174 80.28 178.974 78.36L185.814 62.76C188.854 64.6 192.414 66.08 196.494 67.2C200.574 68.24 204.574 68.76 208.494 68.76C212.334 68.76 214.974 68.36 216.414 67.56C217.934 66.76 218.694 65.68 218.694 64.32C218.694 63.04 217.974 62.12 216.534 61.56C215.174 60.92 213.334 60.44 211.014 60.12C208.774 59.8 206.294 59.44 203.574 59.04C200.854 58.64 198.094 58.12 195.294 57.48C192.574 56.76 190.054 55.72 187.734 54.36C185.494 52.92 183.694 51 182.334 48.6C180.974 46.2 180.294 43.16 180.294 39.48C180.294 35.32 181.494 31.64 183.894 28.44C186.374 25.16 189.974 22.6 194.694 20.76C199.414 18.84 205.174 17.88 211.974 17.88C216.534 17.88 221.134 18.36 225.774 19.32C230.494 20.2 234.454 21.56 237.654 23.4L230.814 38.88C227.614 37.04 224.414 35.8 221.214 35.16C218.014 34.44 214.974 34.08 212.094 34.08C208.254 34.08 205.534 34.52 203.934 35.4C202.414 36.28 201.654 37.36 201.654 38.64C201.654 39.92 202.334 40.92 203.694 41.64C205.054 42.28 206.854 42.8 209.094 43.2C211.414 43.52 213.934 43.88 216.654 44.28C219.374 44.6 222.094 45.12 224.814 45.84C227.614 46.56 230.134 47.64 232.374 49.08C234.694 50.44 236.534 52.32 237.894 54.72C239.254 57.04 239.934 60.04 239.934 63.72C239.934 67.72 238.694 71.32 236.214 74.52C233.814 77.72 230.214 80.28 225.414 82.2C220.694 84.12 214.814 85.08 207.774 85.08ZM268.599 85.08C263.079 85.08 257.679 84.44 252.399 83.16C247.199 81.88 242.999 80.28 239.799 78.36L246.639 62.76C249.679 64.6 253.239 66.08 257.319 67.2C261.399 68.24 265.399 68.76 269.319 68.76C273.159 68.76 275.799 68.36 277.239 67.56C278.759 66.76 279.519 65.68 279.519 64.32C279.519 63.04 278.799 62.12 277.359 61.56C275.999 60.92 274.159 60.44 271.839 60.12C269.599 59.8 267.119 59.44 264.399 59.04C261.679 58.64 258.919 58.12 256.119 57.48C253.399 56.76 250.879 55.72 248.559 54.36C246.319 52.92 244.519 51 243.159 48.6C241.799 46.2 241.119 43.16 241.119 39.48C241.119 35.32 242.319 31.64 244.719 28.44C247.199 25.16 250.799 22.6 255.519 20.76C260.239 18.84 265.999 17.88 272.799 17.88C277.359 17.88 281.959 18.36 286.599 19.32C291.319 20.2 295.279 21.56 298.479 23.4L291.639 38.88C288.439 37.04 285.239 35.8 282.039 35.16C278.839 34.44 275.799 34.08 272.919 34.08C269.079 34.08 266.359 34.52 264.759 35.4C263.239 36.28 262.479 37.36 262.479 38.64C262.479 39.92 263.159 40.92 264.519 41.64C265.879 42.28 267.679 42.8 269.919 43.2C272.239 43.52 274.759 43.88 277.479 44.28C280.199 44.6 282.919 45.12 285.639 45.84C288.439 46.56 290.959 47.64 293.199 49.08C295.519 50.44 297.359 52.32 298.719 54.72C300.079 57.04 300.759 60.04 300.759 63.72C300.759 67.72 299.519 71.32 297.039 74.52C294.639 77.72 291.039 80.28 286.239 82.2C281.519 84.12 275.639 85.08 268.599 85.08Z" fill="#7E4FED"/>
<path d="M141.652 85.08C134.532 85.08 128.212 83.64 122.692 80.76C117.172 77.88 112.812 73.92 109.612 68.88C106.492 63.76 104.932 57.92 104.932 51.36C104.932 44.8 106.492 39 109.612 33.96C112.812 28.92 117.172 25 122.692 22.2C128.212 19.32 134.532 17.88 141.652 17.88C148.772 17.88 155.092 19.32 160.612 22.2C166.212 25 170.572 28.92 173.692 33.96C176.812 39 178.372 44.8 178.372 51.36C178.372 57.92 176.812 63.76 173.692 68.88C170.572 73.92 166.212 77.88 160.612 80.76C155.092 83.64 148.772 85.08 141.652 85.08ZM141.652 66.96C144.292 66.96 146.612 66.36 148.612 65.16C150.692 63.96 152.332 62.2 153.532 59.88C154.732 57.48 155.332 54.64 155.332 51.36C155.332 48.08 154.732 45.32 153.532 43.08C152.332 40.76 150.692 39 148.612 37.8C146.612 36.6 144.292 36 141.652 36C139.092 36 136.772 36.6 134.692 37.8C132.692 39 131.052 40.76 129.772 43.08C128.572 45.32 127.972 48.08 127.972 51.36C127.972 54.64 128.572 57.48 129.772 59.88C131.052 62.2 132.692 63.96 134.692 65.16C136.772 66.36 139.092 66.96 141.652 66.96Z" fill="#1EEFA4"/>
</svg>
