<svg width="678" height="678" viewBox="0 0 678 678" fill="none" xmlns="http://www.w3.org/2000/svg">
<path d="M451.5 434C539.905 456.645 593.52 400.959 655.856 333.416C588.986 354.601 542.164 247.24 471 264C461.81 305.255 436.331 331.969 374.417 360.362L451.5 434Z" fill="#FFBB45"/>
<path d="M315 266.5C238 307.5 204.196 456.306 204.196 456.306M388.148 324.823C328.74 351.691 293.531 420.237 276 463.716M450 393.5C407.917 401.854 380.089 441.202 366.909 468.922" stroke="#1EEFA4" stroke-width="91.4286" stroke-linecap="round"/>
<path d="M277.347 172.517C270.108 175.316 263.106 179.002 256.356 183.397M251 187.067C237.967 196.447 225.928 208.388 215 221.513" stroke="white" stroke-width="4" stroke-linecap="round"/>
<path d="M197.912 225.94C212.574 204.315 230.084 185.147 250.5 173.382" stroke="white" stroke-width="4" stroke-linecap="round"/>
<path d="M185.682 421.924C165.652 425.173 150.034 375.748 130.268 389.552C110.503 403.356 124.886 470.031 157.602 486.998" fill="#7E4FED"/>
<path d="M185.682 421.924C165.652 425.173 150.034 375.748 130.268 389.552C110.503 403.356 124.886 470.031 157.602 486.998" stroke="#0F172A" stroke-width="9.14286" stroke-linecap="round" stroke-linejoin="round"/>
<path d="M190.799 534.551C159.001 536.496 135.999 505.914 147.739 477.289L174.031 413.175C198.656 353.204 272.796 328.255 330.399 360.594L472.326 440.262C509.492 461.139 495.857 515.892 452.837 518.523L190.756 534.554L190.799 534.551Z" fill="#7E4FED"/>
<path opacity="0.2" d="M345.752 510.481C324.133 511.804 308.431 490.203 316.369 470.042C329.672 436.248 369.979 422.287 401.364 440.56L409.178 445.119C437.796 461.796 427.377 505.445 394.348 507.466L345.749 510.438L345.752 510.481Z" fill="white"/>
<path opacity="0.2" d="M261.91 401.897C255.862 402.267 251.489 396.249 253.727 390.601C257.455 381.159 268.671 377.287 277.422 382.392L279.61 383.679C287.601 388.314 284.687 400.504 275.464 401.068L261.91 401.897Z" fill="white"/>
<path opacity="0.5" d="M410.5 339C416.445 326.18 415.554 316.717 409.212 305.128" stroke="white" stroke-width="15.9006" stroke-linecap="round" stroke-linejoin="round"/>
<path d="M198.831 452.413C207.048 451.911 213.302 444.842 212.799 436.624C212.297 428.407 205.228 422.153 197.01 422.655C188.793 423.158 182.539 430.227 183.041 438.444C183.544 446.662 190.613 452.916 198.831 452.413Z" fill="#0F172A" stroke="white" stroke-width="7.9503"/>
<path d="M247.373 447.56C255.073 447.089 260.932 440.466 260.461 432.767C259.99 425.068 253.367 419.208 245.668 419.679C237.969 420.15 232.109 426.773 232.58 434.472C233.051 442.172 239.674 448.031 247.373 447.56Z" fill="#0F172A" stroke="white" stroke-width="7.9503"/>
<path d="M204.598 456.639C209.333 461.559 216.625 466.041 224.518 465.559C232.411 465.076 239.102 459.739 243.203 454.278" stroke="#0F172A" stroke-width="9.14286" stroke-linecap="round" stroke-linejoin="round"/>
<path d="M472.221 438.506L441.762 420.879L429.374 413.672M472.221 438.506C509.412 459.866 495.857 515.887 452.843 518.518L190.801 534.546C190.758 534.549 190.801 534.546 190.758 534.549C190.714 534.552 190.714 534.552 190.714 534.552C180.841 535.156 171.818 532.522 164.409 527.723C143.419 509.629 155.013 454.267 177 397C180.983 385.383 185.896 372.373 191.682 358.824C210.121 315.647 242.951 254.67 296.514 226.149C318.799 214.283 346.484 222.73 358.35 245.015C366.088 259.546 365.189 276.373 357.448 289.613M472.221 438.506C496.5 423 495.507 391 493.839 382.599C487.575 351.04 454.491 341.603 427.416 349.84M179.528 397.539C179.528 397.539 193.601 372.061 218.103 360.83M357.448 289.613C361.61 287.321 365.896 285.167 370.31 283.17C393.314 272.767 420.396 282.981 430.8 305.985C437.479 320.753 435.661 337.202 427.416 349.84M357.448 289.613C355.132 291.076 343 298.5 330 310.5M427.416 349.84C425.245 350.5 418.5 353.5 412.5 358.5" stroke="#0F172A" stroke-width="9.14286" stroke-linecap="round" stroke-linejoin="round"/>
<path d="M341 214.982C351.918 218.494 361.534 226.092 367.35 237.015C370.918 243.714 372.649 250.901 372.721 258" stroke="white" stroke-width="4" stroke-linecap="round"/>
<path d="M379.356 234C382.079 243.776 382.281 253.67 380.354 262.978" stroke="white" stroke-width="4" stroke-linecap="round"/>
<path d="M133.134 473.386C133.134 473.386 131.769 434.659 145.698 432.288C157.508 430.261 172.585 436.18 174.769 445.013C177.556 456.317 148.701 473.96 148.701 473.96" fill="#FFBB45"/>
<path d="M133.134 473.386C133.134 473.386 131.769 434.659 145.698 432.288C157.508 430.261 172.585 436.18 174.769 445.013C177.556 456.317 148.701 473.96 148.701 473.96" stroke="#0F172A" stroke-width="9.14286" stroke-linecap="round" stroke-linejoin="round"/>
<path d="M117.493 485.531C117.493 485.531 87.9237 462.73 96.3296 451.379C103.472 441.747 116.035 432.421 123.705 437.287C133.538 443.53 131.876 474.438 131.876 474.438" fill="#FFBB45"/>
<path d="M117.493 485.531C117.493 485.531 87.9237 462.73 96.3296 451.379C103.472 441.747 116.035 432.421 123.705 437.287C133.538 443.53 131.876 474.438 131.876 474.438" stroke="#0F172A" stroke-width="9.14286" stroke-linecap="round" stroke-linejoin="round"/>
<rect x="89.3919" y="477.615" width="88.7866" height="80.4607" transform="rotate(-9.30023 89.3919 477.615)" fill="#FF7E00" stroke="#0F172A" stroke-width="9.14286" stroke-linecap="round" stroke-linejoin="round"/>
<rect x="113.657" y="473.641" width="40.1795" height="80.3109" transform="rotate(-9.30023 113.657 473.641)" fill="#FFBB45" stroke="#0F172A" stroke-width="9.14286" stroke-linecap="round" stroke-linejoin="round"/>
<path d="M91 440.178C88.1076 442.83 85.4485 445.934 83.3254 449.047C81.0992 452.316 81.8839 456.365 84.1678 460.5M86.4214 464C87.0333 464.84 87.6897 465.675 88.3777 466.5" stroke="white" stroke-width="4" stroke-linecap="round"/>
<path d="M215.195 478.118C188.863 478.172 156.063 481.792 164.833 501.431C173.084 519.887 200.491 526.375 223.532 528.87" fill="#7E4FED"/>
<path d="M215.195 478.118C188.863 478.172 156.063 481.792 164.833 501.431C173.084 519.887 200.491 526.375 223.532 528.87" stroke="#0F172A" stroke-width="9.14286" stroke-linecap="round" stroke-linejoin="round"/>
<path d="M498.217 299C494.74 307.102 489.133 315.963 484.4 322.814" stroke="#0F172A" stroke-width="9.14286" stroke-linecap="round" stroke-linejoin="round"/>
<path d="M512.744 395.536C533.919 391.104 567.6 381.475 593.041 362" stroke="#0F172A" stroke-width="9.14286" stroke-linecap="round" stroke-linejoin="round"/>
<path d="M536.5 469C553.061 465.193 579.96 457.385 602 447.216" stroke="white" stroke-width="4" stroke-linecap="round"/>
<path d="M511 462C522.712 459.308 539.595 454.614 556.273 448.5M566.5 444.548C568.353 443.792 570.189 443.02 572 442.232" stroke="white" stroke-width="4" stroke-linecap="round"/>
<path d="M441.739 298.95C444.162 293.447 446.957 286.605 449.78 279.01M451.611 274.157C451.996 273.094 452.23 272.043 452.614 270.956" stroke="white" stroke-width="4" stroke-linecap="round"/>
<path d="M625 412.5C636 404.5 658.7 383.4 661.5 363" stroke="white" stroke-width="4" stroke-linecap="round"/>
<path d="M372.5 540.5L481 529.5" stroke="white" stroke-width="4" stroke-linecap="round"/>
<path d="M320 555L403 546.585M428.5 544L414.5 545.419" stroke="white" stroke-width="4" stroke-linecap="round"/>
<path d="M438.5 279.5L442 251" stroke="white" stroke-width="4" stroke-linecap="round"/>
<g clip-path="url(#clip0_1_7269)">
<path d="M161.636 344.367C161.638 344.364 161.643 344.363 161.645 344.366C167.821 351.223 170.17 356.201 168.69 359.31C166.89 363.06 163.62 364.84 158.88 364.65C155.24 364.52 150.99 363.28 146.14 360.93C140.67 358.29 136.05 355.13 132.29 351.47C127.89 347.22 126.24 343.56 127.33 340.51C127.5 340.07 127.69 339.66 127.88 339.27C129.2 336.58 131.42 335.09 134.54 334.81C136.255 334.679 138.492 334.915 141.258 335.518C143.465 336 145.86 335.94 147.88 336.95C148.95 337.48 149.45 338.55 149.38 340.17C149.37 340.53 149.26 340.9 149.07 341.29C148.61 342.23 147.79 343.12 146.61 343.95C145.24 344.93 144.14 345.21 143.29 344.8C141.942 344.178 141.031 342.831 139.602 342.432C138.832 342.217 138.055 342.064 137.27 341.97C135.77 341.8 134.8 341.97 134.39 342.49C133.72 343.29 135.13 344.97 138.62 347.53C141.52 349.68 144.85 351.76 148.61 353.77C151.45 355.29 154.21 356.44 156.88 357.23C159.94 358.13 161.81 358.14 162.49 357.26C162.87 356.72 162.49 355.67 161.33 354.09C160.445 352.842 159.332 351.594 157.992 350.353C157.492 349.889 156.855 349.613 156.25 349.3C154.33 348.36 153.95 346.72 155.1 344.38C155.35 343.86 155.66 343.37 156.01 342.89C157.12 341.46 158.3 341.05 159.57 341.68C160.606 342.188 161.295 343.083 161.626 344.366C161.628 344.371 161.634 344.372 161.636 344.367Z" fill="#7E4FED"/>
<path d="M157.86 316.58C161.18 315.64 165.4 316.58 170.5 319.37C174.46 321.55 177.43 324.15 179.4 327.17C181.62 330.57 181.92 333.75 180.3 336.7C178.7 339.62 176.05 341.09 172.36 341.13C169.12 341.17 165.6 340.14 161.79 338.05C158.43 336.21 155.71 334.01 153.64 331.47C151.41 328.76 150.53 326.38 151 324.33C151.25 323.27 151.65 322.25 152.19 321.27C153.53 318.83 155.42 317.27 157.86 316.58ZM157.175 323.255C157.172 323.252 157.168 323.253 157.166 323.256C156.502 324.246 156.993 325.694 158.63 327.58C160.13 329.27 161.92 330.69 163.98 331.82C166.96 333.46 169.14 334.49 170.51 334.91C172.97 335.68 174.7 335.44 175.69 334.16C176.3 333.34 175.54 331.85 173.39 329.68C171.32 327.59 168.87 325.78 166.05 324.23C161.425 321.693 158.466 321.361 157.184 323.254C157.182 323.257 157.178 323.258 157.175 323.255Z" fill="#7E4FED"/>
<path d="M205.13 293.2C206.01 294.31 206 295.58 205.11 296.98C203.98 298.75 202.54 299.67 200.78 299.75C199.82 299.78 197.37 298.54 193.43 296.04C192.85 295.67 192.04 295.16 191 294.5C189.95 293.79 189.21 293.3 188.79 293.03C186.65 291.67 185.49 291.08 185.29 291.25C184.86 291.561 187.574 295.177 193.441 302.081C194.563 303.402 195.838 304.604 197.22 305.65C198.07 306.27 198.47 306.96 198.42 307.7C198.38 308.23 198.21 308.74 197.9 309.23C197.34 310.11 196.5 310.78 195.4 311.24C194.3 311.7 193.28 311.78 192.35 311.49C191.03 311.08 188.71 309.8 185.4 307.65C180.59 304.5 178.27 302.99 178.45 303.1C177.214 302.359 176.719 302.979 177.417 304.24C177.771 304.882 178.129 305.495 178.49 306.08C179.59 307.871 180.656 309.352 181.687 310.521C182.814 311.801 184.119 312.978 185.65 313.73C186.64 314.19 187.18 314.73 187.27 315.34C187.35 315.95 187.18 316.59 186.75 317.26C186.28 317.99 185.61 318.6 184.72 319.09C183.83 319.58 183.02 319.82 182.29 319.83C181.22 319.83 178.81 318.69 175.08 316.4C171.48 314.11 167.88 311.82 164.28 309.53C163.96 309.37 163.45 309.22 162.77 309.08C162.08 308.94 161.6 308.79 161.33 308.61C161.06 308.44 160.84 308.19 160.7 307.89C160.34 307.11 160.68 305.9 161.71 304.29C162.97 302.31 164.22 301.43 165.45 301.65C165.72 301.69 165.96 301.78 166.18 301.92C166.46 302.09 166.76 302.49 167.09 303.11C167.42 303.73 167.76 304.15 168.09 304.36C169.348 305.16 170.848 303.682 170.078 302.405C169.512 301.465 168.912 300.463 168.28 299.4C168 298.96 167.71 298.54 167.42 298.12C167.13 297.7 166.94 297.23 166.85 296.7C166.76 296.17 166.96 295.51 167.47 294.71C168.25 293.49 169.3 292.44 170.64 291.55C171.98 290.66 173.04 290.45 173.82 290.9C174.63 291.37 175.16 291.87 175.41 292.39C175.66 292.91 175.92 293.26 176.19 293.43L177.848 294.506C179.688 295.7 181.343 293.887 179.93 292.21C177.46 289.22 176.2 287.35 176.17 286.6C176.11 285.62 176.5 284.47 177.33 283.16C178.88 280.72 180.39 279.9 181.85 280.7C185.55 283.1 191.78 287.06 200.53 292.58C200.87 292.79 201.46 292.75 202.32 292.44C203.18 292.13 203.87 292.14 204.39 292.47C204.637 292.628 204.884 292.865 205.132 293.199C205.132 293.2 205.131 293.201 205.13 293.2Z" fill="#7E4FED"/>
<path d="M179.38 260.02C179.53 260 179.71 260.06 179.91 260.21C180.17 260.4 180.56 260.82 181.08 261.46C181.72 262.24 182.16 262.77 182.41 263.04C182.66 263.31 183.32 263.75 184.4 264.36C185.01 264.81 185.28 265.28 185.21 265.79C185.13 266.29 184.89 266.82 184.49 267.38C183.91 268.17 183.17 268.86 182.25 269.44C181.12 270.14 180.21 270.24 179.54 269.75C179.34 269.6 179.12 269.31 178.88 268.86C178.64 268.42 178.42 268.1 178.21 267.9C178.02 267.67 177.43 267.25 176.46 266.62C175.69 266.15 175.3 265.64 175.29 265.09C175.28 264.37 175.71 263.41 176.59 262.21C177.547 260.905 178.473 260.175 179.38 260.022C179.381 260.021 179.381 260.02 179.38 260.02ZM190.49 267.25C190.9 267.55 191.37 268.24 191.9 269.32C192.43 270.4 192.98 271.15 193.53 271.55L206.42 280.95C207 281.38 207.95 281.82 209.25 282.27C210.55 282.73 211.41 283.1 211.82 283.4C212.4 283.83 212.67 284.38 212.62 285.06C212.55 286.13 212.21 287.09 211.59 287.94C210.78 289.05 209.82 289.56 208.72 289.48C207.34 289.41 204.32 287.68 199.68 284.3C198.57 283.49 196.85 282.21 194.53 280.45C192.21 278.69 190.51 277.42 189.43 276.63C189.02 276.33 188.46 275.99 187.73 275.59C187.01 275.2 186.5 274.9 186.21 274.68C185.25 273.98 184.67 273.02 184.48 271.81C184.4 271.31 184.65 270.66 185.23 269.87C185.81 269.08 186.51 268.38 187.33 267.77C188.15 267.16 188.81 266.87 189.29 266.88C189.77 266.89 190.17 267.02 190.49 267.25Z" fill="#7E4FED"/>
<path d="M227.99 258.76C228.56 259.32 228.75 260.16 228.56 261.27C228.37 262.38 227.9 263.4 227.14 264.32C225.397 266.452 222.432 265.096 220.326 263.323C213.938 257.943 210.444 255.525 209.83 256.07C209.214 256.615 211.109 260.555 215.507 267.898C216.617 269.75 218.052 271.39 219.72 272.76C220.7 273.61 221.19 274.47 221.19 275.33C221.19 276.19 220.94 276.92 220.46 277.5C219.63 278.51 218.21 279.13 216.17 279.39C215.61 279.5 213.34 277.93 209.35 274.7C211.81 276.67 207.3 272.95 195.84 263.54C195.59 263.33 195.22 263.08 194.74 262.78C194.26 262.48 193.92 262.25 193.73 262.09C193.2 261.65 192.85 261.14 192.69 260.53C192.46 259.78 192.65 259.04 193.24 258.32C193.86 257.57 194.74 256.96 195.88 256.52C197.02 256.07 197.87 255.94 198.42 256.12C198.79 256.24 199.12 256.41 199.4 256.64C199.68 256.87 199.98 257.3 200.3 257.94C200.62 258.58 200.95 259.03 201.28 259.31C202.663 260.445 204.689 258.879 204.028 257.217C203.491 255.865 203.122 254.787 202.92 253.98C202.16 250.69 202.67 248.09 204.47 246.19C205.54 245.06 207.36 245.12 209.93 246.39C211.87 247.33 214.45 249.09 217.66 251.68C219.778 253.42 221.89 255.153 224.006 256.891C224.804 257.547 225.711 258.058 226.74 258.15C227.18 258.18 227.6 258.39 227.99 258.76Z" fill="#7E4FED"/>
<path d="M225.15 225.198C225.15 225.191 225.158 225.187 225.163 225.192C227.454 227.303 231.24 230.739 236.53 235.5C240.25 238.89 242.88 241.34 244.45 242.85C247.88 246.17 249.96 248.7 250.68 250.46C251.4 252.21 251.02 253.98 249.54 255.77C248.2 257.425 246.597 258.565 244.735 259.199C243.356 259.667 242.015 260.267 240.61 260.65C239.92 260.84 239.2 260.7 238.45 260.23C237 259.28 237.32 257.73 239.41 255.57C239.94 255.02 240.5 254.57 241.11 254.2C241.54 253.91 242.23 253.8 243.19 253.88C244.15 253.95 244.83 253.81 245.24 253.44C246.02 252.74 245.32 251.33 243.13 249.22C242.88 248.978 242.585 248.701 242.244 248.389C241.099 247.342 239.393 248.463 239.5 250.01C239.56 251.72 239.03 253.15 237.92 254.3C236.36 255.91 233.99 256.13 230.8 254.96C227.87 253.89 224.93 251.93 221.99 249.09C218.97 246.17 216.89 243.23 215.74 240.26C214.45 236.91 214.72 234.24 216.52 232.26C217.5 231.2 218.45 230.63 219.37 230.56C220.023 230.51 220.395 229.183 220.28 228.538C220.259 228.419 220.249 228.296 220.25 228.17C220.25 227.61 220.51 227.04 221.07 226.47C221.6 225.92 222.27 225.52 223.08 225.25C223.885 224.982 224.571 224.97 225.139 225.205C225.144 225.208 225.15 225.204 225.15 225.198ZM230.57 239.485C230.57 239.482 230.569 239.479 230.567 239.476C229.157 237.918 227.559 236.719 225.75 235.88C223.74 234.94 222.33 234.89 221.53 235.72C220.88 236.4 221.05 237.72 222.06 239.7C222.96 241.48 224.14 243.12 225.6 244.63C227.14 246.22 228.68 247.48 230.23 248.43C232.09 249.52 233.33 249.75 233.96 249.1C234.51 248.53 234.42 247.15 233.68 244.98C232.941 242.812 231.902 240.983 230.573 239.494C230.571 239.491 230.57 239.488 230.57 239.485Z" fill="#7E4FED"/>
<path d="M267 217.61C268.58 219.59 269.23 221.84 268.94 224.37C268.65 226.9 267.54 228.93 265.62 230.47C264.41 231.44 262.69 231.87 260.46 231.75C258.7 231.63 256.86 231.22 254.96 230.52C253.3 229.9 252.39 229.4 252.23 229.02C251.98 228.07 252.67 226.93 254.3 225.62C254.98 225.08 255.59 224.75 256.15 224.63C257.12 224.46 257.88 224.62 258.41 225.11C259.225 225.885 260.352 226.309 261.477 226.339C261.928 226.351 262.274 226.261 262.52 226.07C262.89 225.78 263.03 225.25 262.96 224.5C262.89 223.75 262.58 223.03 262.04 222.35C261.7 221.93 261.29 221.56 260.81 221.25C260.33 220.94 259.05 220.9 256.96 221.13C254.46 221.42 252.54 221.45 251.2 221.23C248.9 220.85 247.03 219.75 245.58 217.95C243.88 215.83 243.02 213.48 242.98 210.89C242.94 208.3 243.89 206.24 245.81 204.7C247.79 203.12 249.89 202.66 252.14 203.32C253.087 203.601 253.905 203.991 254.591 204.491C255.769 205.352 257.06 206.339 257.97 207.48C258.65 208.33 258.91 209.3 258.77 210.39C258.62 211.48 258.23 212.29 257.58 212.81C256.62 213.58 255.28 213.61 253.56 212.91C253.09 212.73 252.63 212.36 252.18 211.79C251.98 211.54 251.71 211.16 251.38 210.66C251.05 210.16 250.8 209.81 250.65 209.61C250.06 208.88 249.5 208.72 248.96 209.15C248.14 209.81 248.38 210.94 249.67 212.55C250.98 214.19 252.57 215.07 254.43 215.2C255.17 215.26 256.54 215.09 258.54 214.69C260.25 214.34 261.62 214.28 262.65 214.53C264.2 214.91 265.66 215.94 267.02 217.64L267 217.61Z" fill="#7E4FED"/>
<path d="M273.14 188.59C276.51 189.33 279.78 192.15 282.96 197.03C285.42 200.82 286.81 204.52 287.12 208.11C287.46 212.16 286.22 215.1 283.4 216.93C280.61 218.74 277.58 218.79 274.31 217.08C271.44 215.58 268.82 213.01 266.46 209.37C264.37 206.15 263.02 202.94 262.39 199.72C261.71 196.28 262.06 193.77 263.44 192.18C264.16 191.37 264.99 190.65 265.93 190.04C268.27 188.52 270.67 188.04 273.14 188.59ZM269.365 194.145C269.366 194.144 269.365 194.143 269.364 194.143C268.309 194.706 268.061 196.205 268.61 198.65C269.14 200.85 270.04 202.94 271.32 204.91C273.17 207.76 274.6 209.7 275.61 210.73C277.41 212.58 279.05 213.18 280.52 212.52C281.45 212.09 281.48 210.41 280.61 207.48C279.77 204.66 278.48 201.9 276.72 199.2C273.843 194.775 271.395 193.093 269.366 194.147C269.365 194.147 269.364 194.146 269.365 194.145Z" fill="#7E4FED"/>
<path d="M298.355 175.855C298.358 175.858 298.362 175.861 298.367 175.863C301.554 177.175 304.292 180.514 306.58 185.86C308.35 190.02 309.08 193.9 308.77 197.49C308.41 201.54 306.69 204.22 303.59 205.54C300.53 206.85 297.54 206.37 294.61 204.12C292.04 202.15 289.9 199.17 288.2 195.18C286.7 191.65 285.91 188.25 285.85 184.97C285.77 181.47 286.55 179.05 288.18 177.72C289.03 177.04 289.97 176.48 291 176.04C293.558 174.951 296.005 174.89 298.343 175.847C298.348 175.849 298.352 175.852 298.355 175.855ZM293.69 180.685C293.69 180.683 293.688 180.681 293.685 180.682C292.549 181.054 292.04 182.484 292.17 184.99C292.31 187.25 292.84 189.46 293.76 191.62C295.09 194.75 296.17 196.9 296.99 198.09C298.45 200.22 299.96 201.09 301.52 200.7C302.51 200.44 302.83 198.79 302.48 195.75C302.14 192.83 301.34 189.89 300.07 186.93C298.002 182.074 295.873 179.993 293.695 180.688C293.692 180.689 293.69 180.687 293.69 180.685Z" fill="#7E4FED"/>
<path d="M338.115 195.28C338.118 195.286 338.12 195.294 338.119 195.302C338.075 196.097 337.575 196.793 336.62 197.38C335.66 197.98 334.59 198.3 333.4 198.34C330.652 198.449 329.693 195.338 329.625 192.589C329.417 184.24 328.902 180.015 328.08 179.92C327.267 179.822 325.569 183.855 322.993 192.02C322.345 194.073 322.07 196.228 322.15 198.38C322.16 199.68 321.85 200.62 321.2 201.18C320.55 201.74 319.85 202.05 319.09 202.07C317.79 202.12 316.37 201.47 314.84 200.11C314.39 199.77 314.05 197.03 313.82 191.9C313.98 195.04 313.77 189.21 313.21 174.39C313.2 174.06 313.14 173.62 313.05 173.07C312.96 172.51 312.91 172.11 312.9 171.85C312.87 171.16 313.03 170.56 313.37 170.04C313.78 169.37 314.45 169.02 315.39 168.99C316.37 168.95 317.4 169.21 318.49 169.77C319.58 170.33 320.24 170.87 320.48 171.4C320.64 171.76 320.72 172.12 320.74 172.48C320.75 172.84 320.63 173.35 320.36 174.01C320.09 174.67 319.97 175.22 319.99 175.65C320.057 177.431 322.566 177.908 323.369 176.317C324.024 175.018 324.588 174.026 325.06 173.34C327.02 170.59 329.3 169.25 331.91 169.34C333.47 169.39 334.63 170.79 335.38 173.55C335.96 175.63 336.35 178.72 336.55 182.84L336.861 191.04C336.9 192.075 337.125 193.089 337.73 193.93C337.998 194.278 338.118 194.724 338.11 195.259C338.11 195.266 338.112 195.273 338.115 195.28Z" fill="#7E4FED"/>
</g>
<path d="M136.135 365.155C130.665 362.515 126.045 359.355 122.285 355.695C117.885 351.445 116.235 347.785 117.325 344.735C117.495 344.295 117.685 343.885 117.875 343.495" stroke="white" stroke-width="4" stroke-linecap="round"/>
<defs>
<clipPath id="clip0_1_7269">
<rect width="211.12" height="195.65" fill="white" transform="translate(127 169)"/>
</clipPath>
</defs>
</svg>
