<svg width="24" height="24" viewBox="0 0 24 24" fill="none" xmlns="http://www.w3.org/2000/svg">
<g clip-path="url(#clip0_11711_5592)">
<path d="M12 20C16.4183 20 20 16.4183 20 12C20 7.5817 16.4183 4 12 4C7.5817 4 4 7.5817 4 12C4 16.4183 7.5817 20 12 20Z" stroke="#0F172A" stroke-width="2" stroke-linejoin="round"/>
<path d="M20.263 11.8234C21.7607 10.3264 22.4537 8.90002 21.987 7.89906C21.0533 5.89692 15.833 6.35518 10.3271 8.92267C4.82116 11.4901 1.11457 15.1945 2.04818 17.1967C2.53734 18.2457 4.20321 18.6193 6.47031 18.368" stroke="#0F172A" stroke-width="2" stroke-linecap="round" stroke-linejoin="round"/>
<path d="M14 8.5C10.5 8.5 4 12 3.5 13L2.5 16V18H5.5L6.5 16.5C6.5 13.5 10.5 9.5 14 8.5Z" fill="#0F172A"/>
<path d="M20.1657 16.7164L20.3097 18.2663L21.58 19.1659L20.0301 19.3098L19.1305 20.5801L18.9865 19.0302L17.7162 18.1306L19.2661 17.9866L20.1657 16.7164Z" fill="#0F172A"/>
<path d="M1.83331 1.71381L4.66174 3.01437L7.49016 1.71381L6.1896 4.54224L7.49016 7.37066L4.66174 6.0701L1.83331 7.37066L3.13387 4.54224L1.83331 1.71381Z" fill="#0F172A"/>
</g>
<defs>
<clipPath id="clip0_11711_5592">
<rect width="24" height="24" fill="white"/>
</clipPath>
</defs>
</svg>
