<svg width="220" height="80" viewBox="0 0 220 80" fill="none" xmlns="http://www.w3.org/2000/svg">
<g clip-path="url(#clip0_11711_5321)">
<path d="M30.2487 59.0377C26.3244 59.0377 23.7244 54.9674 25.3784 51.4052L38.0433 24.1566C39.3406 21.3674 42.6974 20.2322 45.4217 21.6539C47.973 22.989 49.0217 26.0917 47.8055 28.7025L47.6487 29.0376L42.9893 39.0377L35.1082 55.9404C34.2271 57.8322 32.3298 59.0377 30.2433 59.0377H30.2487Z" fill="#1EEFA4"/>
<path d="M47.5081 46.7243C43.573 46.7243 40.973 42.6432 42.627 39.0757L45.9892 31.8432C47.2865 29.0541 50.6432 27.9189 53.3675 29.3405C55.9189 30.6757 56.9675 33.7784 55.7513 36.3892L55.5946 36.7243L52.3838 43.6162C51.5027 45.5135 49.6 46.7243 47.5081 46.7243Z" fill="#1EEFA4"/>
<path d="M55.0757 54.8324C51.1406 54.8324 48.5406 50.7513 50.1946 47.1838L53.5568 39.9513C54.8541 37.1621 58.2108 36.027 60.9352 37.4486C63.4865 38.7838 64.5352 41.8865 63.319 44.4973L63.1622 44.8324L59.9514 51.7243C59.0703 53.6216 57.1676 54.8324 55.0757 54.8324Z" fill="#1EEFA4"/>
<path d="M30.486 59C26.479 59 23.8259 54.9838 25.5197 51.4803L29.313 43.6329C32.865 36.2929 42.3646 33.7299 49.3481 38.2322L66.5548 49.3242C71.0606 52.2307 68.9283 59 63.507 59H30.4805H30.486Z" fill="#7E4FED"/>
<path opacity="0.1" d="M50.1244 57.1676C47.4 57.1676 45.5946 54.3351 46.746 51.8649C48.6757 47.7243 53.8433 46.2811 57.6433 48.8162L58.5892 49.4487C62.0541 51.7622 60.4109 57.1622 56.2487 57.1622H50.1244V57.1676Z" fill="white"/>
<path opacity="0.1" d="M40.4324 42.8916C39.6703 42.8916 39.1676 42.1024 39.4919 41.4105C40.0324 40.2538 41.4703 39.8538 42.5297 40.5619L42.7946 40.7403C43.7622 41.3835 43.3027 42.8916 42.1405 42.8916H40.4324Z" fill="white"/>
<path opacity="0.3" d="M52.8433 37.2654L53 36.9303C53.7514 35.3195 53.6379 33.5249 52.8433 32.0654" stroke="white" stroke-width="1.72973" stroke-linecap="round" stroke-linejoin="round"/>
<path d="M46.0973 31.7406C46.2649 31.4487 46.6649 30.8703 47.1297 30.2433" stroke="#0F172A" stroke-width="1.5" stroke-linecap="round" stroke-linejoin="round"/>
<path d="M54 39.3751C54.1676 39.0832 54.7851 38.1271 55.25 37.5001" stroke="#0F172A" stroke-width="1.5" stroke-linecap="round" stroke-linejoin="round"/>
<path d="M64 47.5L61 45.5" stroke="#0F172A" stroke-width="1.5" stroke-linecap="round" stroke-linejoin="round"/>
<path d="M33.5568 38.3408C32.5285 38.9246 31.6325 39.6061 31 40.2067" stroke="#0F172A" stroke-width="1.5" stroke-linecap="round" stroke-linejoin="round"/>
<path d="M32.125 48.75C33.1605 48.75 34 47.9105 34 46.875C34 45.8395 33.1605 45 32.125 45C31.0895 45 30.25 45.8395 30.25 46.875C30.25 47.9105 31.0895 48.75 32.125 48.75Z" fill="#0F172A" stroke="white"/>
<path d="M38.2568 48.5135C39.227 48.5135 40.0135 47.727 40.0135 46.7568C40.0135 45.7865 39.227 45 38.2568 45C37.2865 45 36.5 45.7865 36.5 46.7568C36.5 47.727 37.2865 48.5135 38.2568 48.5135Z" fill="#0F172A" stroke="white"/>
<path d="M32.751 49.375C33.3077 50.0291 34.1888 50.4561 35.1834 50.4561C36.178 50.4561 37.0591 50.0291 37.6158 49.375" stroke="#0F172A" stroke-width="1.5" stroke-linecap="round" stroke-linejoin="round"/>
<path d="M66.5551 49.0981L62.9433 46.7145L63.8531 44.7903L64.0121 44.4552C65.2452 41.8446 64.182 38.7421 61.5951 37.4071C59.5507 36.3531 57.1611 36.7045 55.5169 38.0881L56.1801 36.6829L56.339 36.3477C57.5722 33.7371 56.5089 30.6347 53.922 29.2997C51.7407 28.1754 49.1592 28.6565 47.5205 30.278L48.1234 28.997L48.2823 28.6619C49.5155 26.0513 48.4522 22.9488 45.8653 21.6138C43.103 20.1923 39.694 21.3273 38.3841 24.1163L29.719 42.4986C29.5765 42.7526 29.4395 43.0121 29.3134 43.2823L25.5207 51.3087C24.3533 53.7734 25.2467 56.4867 27.2253 57.9406C28.1186 58.6 29.2312 59 30.4753 59C30.4753 59 30.4753 59 30.4808 59C30.4863 59 30.4808 59 30.4863 59H63.5078C68.9283 59 71.0603 52.0708 66.5551 49.1035V49.0981Z" stroke="#0F172A" stroke-width="1.5" stroke-linecap="round" stroke-linejoin="round"/>
</g>
<path d="M80.24 59V36.6H85.456L94.736 51.832H91.984L101.008 36.6H106.224L106.288 59H100.464L100.4 45.464H101.392L94.64 56.792H91.824L84.88 45.464H86.096V59H80.24ZM135.54 59.288C134.068 59.288 132.628 59.1173 131.22 58.776C129.833 58.4347 128.713 58.008 127.86 57.496L129.684 53.336C130.494 53.8267 131.444 54.2213 132.532 54.52C133.62 54.7973 134.686 54.936 135.732 54.936C136.756 54.936 137.46 54.8293 137.844 54.616C138.249 54.4027 138.452 54.1147 138.452 53.752C138.452 53.4107 138.26 53.1653 137.876 53.016C137.513 52.8453 137.022 52.7173 136.404 52.632C135.806 52.5467 135.145 52.4507 134.42 52.344C133.694 52.2373 132.958 52.0987 132.212 51.928C131.486 51.736 130.814 51.4587 130.196 51.096C129.598 50.712 129.118 50.2 128.756 49.56C128.393 48.92 128.212 48.1093 128.212 47.128C128.212 46.0187 128.532 45.0373 129.172 44.184C129.833 43.3093 130.793 42.6267 132.052 42.136C133.31 41.624 134.846 41.368 136.66 41.368C137.876 41.368 139.102 41.496 140.34 41.752C141.598 41.9867 142.654 42.3493 143.508 42.84L141.684 46.968C140.83 46.4773 139.977 46.1467 139.124 45.976C138.27 45.784 137.46 45.688 136.692 45.688C135.668 45.688 134.942 45.8053 134.516 46.04C134.11 46.2747 133.908 46.5627 133.908 46.904C133.908 47.2453 134.089 47.512 134.452 47.704C134.814 47.8747 135.294 48.0133 135.892 48.12C136.51 48.2053 137.182 48.3013 137.908 48.408C138.633 48.4933 139.358 48.632 140.084 48.824C140.83 49.016 141.502 49.304 142.1 49.688C142.718 50.0507 143.209 50.552 143.572 51.192C143.934 51.8107 144.116 52.6107 144.116 53.592C144.116 54.6587 143.785 55.6187 143.124 56.472C142.484 57.3253 141.524 58.008 140.244 58.52C138.985 59.032 137.417 59.288 135.54 59.288ZM151.76 59.288C150.288 59.288 148.848 59.1173 147.44 58.776C146.053 58.4347 144.933 58.008 144.08 57.496L145.904 53.336C146.714 53.8267 147.664 54.2213 148.752 54.52C149.84 54.7973 150.906 54.936 151.952 54.936C152.976 54.936 153.68 54.8293 154.064 54.616C154.469 54.4027 154.672 54.1147 154.672 53.752C154.672 53.4107 154.48 53.1653 154.096 53.016C153.733 52.8453 153.242 52.7173 152.624 52.632C152.026 52.5467 151.365 52.4507 150.64 52.344C149.914 52.2373 149.178 52.0987 148.432 51.928C147.706 51.736 147.034 51.4587 146.416 51.096C145.818 50.712 145.338 50.2 144.976 49.56C144.613 48.92 144.432 48.1093 144.432 47.128C144.432 46.0187 144.752 45.0373 145.392 44.184C146.053 43.3093 147.013 42.6267 148.272 42.136C149.53 41.624 151.066 41.368 152.88 41.368C154.096 41.368 155.322 41.496 156.56 41.752C157.818 41.9867 158.874 42.3493 159.728 42.84L157.904 46.968C157.05 46.4773 156.197 46.1467 155.344 45.976C154.49 45.784 153.68 45.688 152.912 45.688C151.888 45.688 151.162 45.8053 150.736 46.04C150.33 46.2747 150.128 46.5627 150.128 46.904C150.128 47.2453 150.309 47.512 150.672 47.704C151.034 47.8747 151.514 48.0133 152.112 48.12C152.73 48.2053 153.402 48.3013 154.128 48.408C154.853 48.4933 155.578 48.632 156.304 48.824C157.05 49.016 157.722 49.304 158.32 49.688C158.938 50.0507 159.429 50.552 159.792 51.192C160.154 51.8107 160.336 52.6107 160.336 53.592C160.336 54.6587 160.005 55.6187 159.344 56.472C158.704 57.3253 157.744 58.008 156.464 58.52C155.205 59.032 153.637 59.288 151.76 59.288Z" fill="#0F172A"/>
<path d="M117.907 59.288C116.009 59.288 114.323 58.904 112.851 58.136C111.379 57.368 110.217 56.312 109.363 54.968C108.531 53.6027 108.115 52.0453 108.115 50.296C108.115 48.5467 108.531 47 109.363 45.656C110.217 44.312 111.379 43.2667 112.851 42.52C114.323 41.752 116.009 41.368 117.907 41.368C119.806 41.368 121.491 41.752 122.963 42.52C124.457 43.2667 125.619 44.312 126.451 45.656C127.283 47 127.699 48.5467 127.699 50.296C127.699 52.0453 127.283 53.6027 126.451 54.968C125.619 56.312 124.457 57.368 122.963 58.136C121.491 58.904 119.806 59.288 117.907 59.288ZM117.907 54.456C118.611 54.456 119.23 54.296 119.763 53.976C120.318 53.656 120.755 53.1867 121.075 52.568C121.395 51.928 121.555 51.1707 121.555 50.296C121.555 49.4213 121.395 48.6853 121.075 48.088C120.755 47.4693 120.318 47 119.763 46.68C119.23 46.36 118.611 46.2 117.907 46.2C117.225 46.2 116.606 46.36 116.051 46.68C115.518 47 115.081 47.4693 114.739 48.088C114.419 48.6853 114.259 49.4213 114.259 50.296C114.259 51.1707 114.419 51.928 114.739 52.568C115.081 53.1867 115.518 53.656 116.051 53.976C116.606 54.296 117.225 54.456 117.907 54.456Z" fill="#7E4FED"/>
<defs>
<clipPath id="clip0_11711_5321">
<rect width="46" height="40" fill="white" transform="translate(24 20)"/>
</clipPath>
</defs>
</svg>
