<svg width="45" height="40" viewBox="0 0 45 40" fill="none" xmlns="http://www.w3.org/2000/svg">
<g clip-path="url(#clip0_11711_5666)">
<path d="M6.24872 39.0377C2.32439 39.0377 -0.275606 34.9674 1.37845 31.4052L14.0433 4.15657C15.3406 1.36738 18.6974 0.232244 21.4217 1.65387C23.973 2.989 25.0217 6.0917 23.8055 8.70252L23.6487 9.03765L18.9893 19.0377L11.1082 35.9404C10.2271 37.8322 8.3298 39.0377 6.24331 39.0377H6.24872Z" fill="#1EEFA4"/>
<path d="M23.5081 26.7242C19.573 26.7242 16.973 22.6431 18.627 19.0755L21.9892 11.8431C23.2865 9.0539 26.6433 7.91877 29.3676 9.34039C31.9189 10.6755 32.9676 13.7782 31.7514 16.389L31.5946 16.7242L28.3838 23.6161C27.5027 25.5134 25.6 26.7242 23.5081 26.7242Z" fill="#1EEFA4"/>
<path d="M31.0757 34.8326C27.1405 34.8326 24.5405 30.7515 26.1946 27.1839L29.5568 19.9515C30.8541 17.1623 34.2108 16.0272 36.9351 17.4488C39.4865 18.7839 40.5351 21.8866 39.3189 24.4974L39.1622 24.8326L35.9514 31.7245C35.0703 33.6218 33.1676 34.8326 31.0757 34.8326Z" fill="#1EEFA4"/>
<path d="M6.25941 39.0383C2.30805 39.0383 -0.30816 34.9302 1.36211 31.3464L5.10265 23.3194C8.60535 15.8113 17.9729 13.1897 24.8594 17.7951L41.827 29.141C46.2702 32.114 44.1675 39.0383 38.8216 39.0383H6.254H6.25941Z" fill="#7E4FED"/>
<path opacity="0.1" d="M26.1243 37.1675C23.4 37.1675 21.5946 34.3351 22.746 31.8648C24.6757 27.7243 29.8433 26.281 33.6433 28.8162L34.5892 29.4486C38.0541 31.7621 36.4108 37.1621 32.2487 37.1621H26.1243V37.1675Z" fill="white"/>
<path opacity="0.1" d="M16.4324 22.8915C15.6702 22.8915 15.1675 22.1023 15.4919 21.4104C16.0324 20.2537 17.4702 19.8537 18.5297 20.5618L18.7946 20.7401C19.7621 21.3834 19.3027 22.8915 18.1405 22.8915H16.4324Z" fill="white"/>
<path opacity="0.3" d="M28.8433 17.2654L29 16.9303C29.7514 15.3195 29.6379 13.5249 28.8433 12.0654" stroke="white" stroke-width="1.72973" stroke-linecap="round" stroke-linejoin="round"/>
<path d="M22.0973 11.7405C22.2649 11.4486 22.6649 10.8702 23.1297 10.2432" stroke="#0F172A" stroke-width="1.5" stroke-linecap="round" stroke-linejoin="round"/>
<path d="M30 19.375C30.1675 19.0831 30.7851 18.127 31.25 17.5" stroke="#0F172A" stroke-width="1.5" stroke-linecap="round" stroke-linejoin="round"/>
<path d="M40.4757 28.2266L37.2324 26.0645" stroke="#0F172A" stroke-width="1.5" stroke-linecap="round" stroke-linejoin="round"/>
<path d="M6.15137 21.2003C6.55677 20.503 7.88109 19.2922 9.55677 18.3408" stroke="#0F172A" stroke-width="1.5" stroke-linecap="round" stroke-linejoin="round"/>
<path d="M8.125 28.75C9.16053 28.75 10 27.9105 10 26.875C10 25.8395 9.16053 25 8.125 25C7.08947 25 6.25 25.8395 6.25 26.875C6.25 27.9105 7.08947 28.75 8.125 28.75Z" fill="#0F172A" stroke="white"/>
<path d="M14.2568 28.5135C15.227 28.5135 16.0135 27.727 16.0135 26.7568C16.0135 25.7865 15.227 25 14.2568 25C13.2865 25 12.5 25.7865 12.5 26.7568C12.5 27.727 13.2865 28.5135 14.2568 28.5135Z" fill="#0F172A" stroke="white"/>
<path d="M8.75122 29.375C9.30798 30.0291 10.1891 30.4561 11.1837 30.4561C12.1782 30.4561 13.0593 30.0291 13.6161 29.375" stroke="#0F172A" stroke-width="1.5" stroke-linecap="round" stroke-linejoin="round"/>
<path d="M41.8271 29.1404L38.265 26.7566L39.1623 24.8322L39.319 24.4971C40.5352 21.8863 39.4866 18.7836 36.9352 17.4485C34.919 16.3944 32.5623 16.7458 30.9406 18.1295L31.5947 16.7241L31.7514 16.389C32.9677 13.7782 31.919 10.6755 29.3677 9.34035C27.2163 8.21603 24.6704 8.69711 23.0541 10.3187L23.6487 9.03765L23.8055 8.70251C25.0217 6.0917 23.9731 2.989 21.4217 1.65387C18.6974 0.232244 15.3352 1.36738 14.0433 4.15657L5.49739 22.5404C5.35685 22.7944 5.22171 23.0539 5.09739 23.3241L1.35685 31.3512C0.205495 33.816 1.08658 36.5295 3.03793 37.9836C3.91901 38.6431 5.01631 39.0431 6.24334 39.0431C6.24334 39.0431 6.24333 39.0431 6.24874 39.0431C6.25415 39.0431 6.24875 39.0431 6.25415 39.0431H38.8217C44.1677 39.0431 46.2704 32.1133 41.8271 29.1458V29.1404Z" stroke="#0F172A" stroke-width="1.5" stroke-linecap="round" stroke-linejoin="round"/>
</g>
<defs>
<clipPath id="clip0_11711_5666">
<rect width="44.8649" height="40" fill="white"/>
</clipPath>
</defs>
</svg>
