<svg width="281" height="280" viewBox="0 0 281 280" fill="none" xmlns="http://www.w3.org/2000/svg">
<path d="M62.9469 63C89.9802 63 111.894 81.62 111.894 104.587C111.894 114.933 107.434 124.393 100.074 131.667L104.94 141C106.274 143.533 103.794 146.393 101.267 145.247L89.1336 139.733C81.0721 144.016 72.075 146.233 62.9469 146.187C35.9136 146.187 14.0002 127.573 14.0002 104.607C14.0002 81.64 35.9136 63 62.9469 63Z" fill="#7E4FED"/>
<path d="M57.0119 89.1124L59.1119 118.906C59.2345 120.726 57.8707 122.307 56.0519 122.452C54.1853 122.566 52.0519 121.259 51.8653 119.446L51.3986 109.446L45.3986 108.966L45.7853 120.459C45.7193 122.154 44.391 123.529 42.6993 123.654C41.0077 123.778 39.4922 122.613 39.1786 120.946L37.0119 90.1924C36.6519 85.5257 44.3453 85.2457 44.6719 90.0457L45.1319 101.799L50.9853 101.279L50.3653 89.5857C50.2309 87.7447 51.6143 86.1434 53.4553 86.009C55.2962 85.8746 56.8976 87.2581 57.0319 89.099L57.0119 89.1124Z" fill="#1EEFA4"/>
<path d="M70.5514 98.9453L69.7781 119.245C69.7634 121.086 68.2591 122.567 66.4181 122.552C64.5772 122.537 63.0967 121.033 63.1114 119.192L63.3248 99.192C63.3914 94.4586 70.5514 95.2653 70.5514 98.9453Z" fill="#1EEFA4"/>
<path d="M63.3915 91.2584V90.7184C63.4351 88.8958 64.9351 87.4463 66.7581 87.4651C67.6455 87.4542 68.4996 87.802 69.1271 88.4294C69.7546 89.0569 70.1023 89.9111 70.0915 90.7984V91.3384C70.0915 92.2283 69.7358 93.0812 69.1034 93.7073C68.4711 94.3334 67.6146 94.6807 66.7248 94.6718C64.871 94.6283 63.391 93.1128 63.3915 91.2584Z" fill="#1EEFA4"/>
<path d="M78.5517 110.692L82.1317 90.8722C82.2758 90.0048 82.7642 89.2325 83.486 88.7303C84.2077 88.2282 85.1017 88.039 85.9651 88.2055C87.75 88.5432 88.9359 90.2479 88.6317 92.0388L85.0451 111.912C84.9511 113.185 84.1383 114.293 82.9521 114.764C81.7658 115.236 80.4145 114.989 79.4722 114.127C78.5298 113.266 78.1621 111.943 78.5251 110.719L78.5517 110.692Z" fill="#1EEFA4"/>
<path d="M83.7783 119.459L83.5183 120.933C83.4349 122.213 82.6234 123.333 81.4319 123.81C80.2404 124.287 78.8806 124.038 77.9358 123.169C76.9909 122.301 76.6289 120.966 77.005 119.739L77.2516 118.319C77.7276 116.689 79.3524 115.678 81.0249 115.97C82.6973 116.262 83.883 117.765 83.7783 119.459Z" fill="#1EEFA4"/>
<path d="M204.413 97.26L214.466 101.92L241.046 72.2267L216.326 58L204.413 97.26Z" fill="#FFBB45"/>
<path d="M223.933 104.753L227.513 110.853L257.86 104.439L250.427 87.9395L223.933 104.753Z" fill="#FFBB45"/>
<path d="M131.333 172.116C122.5 173 117 151 108 156.5C99 162 103.5 191.5 117.333 199.783" fill="#7E4FED"/>
<path d="M131.333 172.116C122.5 173 117 151 108 156.5C99 162 103.5 191.5 117.333 199.783" stroke="#0F172A" stroke-width="6" stroke-linecap="round" stroke-linejoin="round"/>
<path d="M129.735 221.562C116.085 221.562 107.041 207.404 112.795 195.014L156.846 100.237C161.359 90.5351 173.034 86.5868 182.51 91.5315C191.384 96.1755 195.032 106.967 190.802 116.049L190.256 117.214L174.05 151.997L146.637 210.789C143.572 217.369 136.973 221.562 129.716 221.562H129.735Z" fill="#1EEFA4"/>
<path d="M189.767 178.737C176.08 178.737 167.037 164.542 172.79 152.133L184.484 126.977C188.997 117.275 200.672 113.327 210.148 118.272C219.022 122.916 222.67 133.708 218.44 142.789L217.894 143.954L206.726 167.926C203.662 174.525 197.044 178.737 189.767 178.737Z" fill="#1EEFA4"/>
<path d="M216.09 206.936C202.402 206.936 193.359 192.741 199.112 180.332L210.806 155.176C215.319 145.475 226.995 141.526 236.47 146.471C245.345 151.115 248.992 161.907 244.762 170.988L244.217 172.154L233.049 196.125C229.984 202.725 223.366 206.936 216.09 206.936Z" fill="#1EEFA4"/>
<path d="M130.56 221.435C116.622 221.435 107.394 207.466 113.286 195.28L126.48 167.985C138.835 142.454 171.877 133.54 196.167 149.2L256.016 187.781C271.689 197.89 264.272 221.435 245.416 221.435H130.541H130.56Z" fill="#7E4FED"/>
<path opacity="0.2" d="M198.868 215.063C189.392 215.063 183.112 205.211 187.117 196.619C193.829 182.217 211.803 177.197 225.021 186.015L228.311 188.215C240.363 196.262 234.647 215.045 220.17 215.045H198.868V215.063Z" fill="white"/>
<path opacity="0.2" d="M165.156 165.407C162.505 165.407 160.756 162.662 161.885 160.256C163.765 156.232 168.766 154.841 172.451 157.304L173.372 157.924C176.738 160.162 175.14 165.407 171.097 165.407H165.156Z" fill="white"/>
<path opacity="0.5" d="M208.324 145.839L208.869 144.673C211.483 139.07 211.088 132.828 208.324 127.752" stroke="white" stroke-width="6.95652" stroke-linecap="round" stroke-linejoin="round"/>
<path d="M186.193 126.622C186.776 125.607 188.167 123.595 189.784 121.414" stroke="#0F172A" stroke-width="5.33333" stroke-linecap="round" stroke-linejoin="round"/>
<path d="M215.014 152.508C215.597 151.493 217.745 148.167 219.362 145.986" stroke="#0F172A" stroke-width="5.33333" stroke-linecap="round" stroke-linejoin="round"/>
<path d="M247.131 181.433L236.696 174.477" stroke="#0F172A" stroke-width="5.33333" stroke-linecap="round" stroke-linejoin="round"/>
<path d="M141.241 149.572C137.665 151.603 134.548 153.973 132.348 156.062" stroke="#0F172A" stroke-width="5.33333" stroke-linecap="round" stroke-linejoin="round"/>
<path d="M136.261 185.782C139.863 185.782 142.783 182.862 142.783 179.26C142.783 175.658 139.863 172.738 136.261 172.738C132.659 172.738 129.739 175.658 129.739 179.26C129.739 182.862 132.659 185.782 136.261 185.782Z" fill="#0F172A" stroke="white" stroke-width="3.47826"/>
<path d="M157.588 184.959C160.963 184.959 163.699 182.223 163.699 178.849C163.699 175.474 160.963 172.738 157.588 172.738C154.214 172.738 151.478 175.474 151.478 178.849C151.478 182.223 154.214 184.959 157.588 184.959Z" fill="#0F172A" stroke="white" stroke-width="3.47826"/>
<path d="M138.667 187.781C140.603 190.056 143.668 192.208 147.127 192.208C150.587 192.208 153.651 190.056 155.588 187.781" stroke="#0F172A" stroke-width="5.33333" stroke-linecap="round" stroke-linejoin="round"/>
<path d="M256.018 186.992L243.455 178.701L246.619 172.009L247.172 170.843C251.461 161.763 247.763 150.971 238.765 146.328C231.655 142.662 223.343 143.884 217.624 148.697L219.93 143.809L220.483 142.643C224.773 133.563 221.074 122.772 212.076 118.128C204.489 114.218 195.51 115.891 189.81 121.531L191.907 117.075L192.46 115.91C196.749 106.829 193.051 96.0382 184.053 91.3946C174.445 86.4503 162.587 90.3982 158.031 100.099L127.892 164.037C127.396 164.921 126.92 165.823 126.481 166.763L113.289 194.681C109.229 203.254 112.336 212.691 119.218 217.749C122.325 220.042 126.195 221.433 130.523 221.433C130.523 221.433 130.523 221.433 130.542 221.433C130.561 221.433 130.542 221.433 130.561 221.433H245.418C264.272 221.433 271.688 197.332 256.018 187.011V186.992Z" stroke="#0F172A" stroke-width="6" stroke-linecap="round" stroke-linejoin="round"/>
<path d="M93.2666 195.137L90.8666 187.311L57.9999 191.371L62.1466 212.251L93.2666 195.137Z" fill="#FFBB45"/>
<path d="M87.1665 179.677L89.7998 174.564L71.2865 160.504L63.1331 173.037L87.1665 179.677Z" fill="#FFBB45"/>
</svg>
