<svg width="173" height="40" viewBox="0 0 173 40" fill="none" xmlns="http://www.w3.org/2000/svg">
<path d="M3.10487 31V8.6H8.32087L17.6009 23.832H14.8489L23.8729 8.6H29.0889L29.1529 31H23.3289L23.2649 17.464H24.2569L17.5049 28.792H14.6889L7.74487 17.464H8.96087V31H3.10487ZM58.4046 31.288C56.9326 31.288 55.4926 31.1173 54.0846 30.776C52.698 30.4347 51.578 30.008 50.7246 29.496L52.5486 25.336C53.3593 25.8267 54.3086 26.2213 55.3966 26.52C56.4846 26.7973 57.5513 26.936 58.5966 26.936C59.6206 26.936 60.3246 26.8293 60.7086 26.616C61.114 26.4027 61.3166 26.1147 61.3166 25.752C61.3166 25.4107 61.1246 25.1653 60.7406 25.016C60.378 24.8453 59.8873 24.7173 59.2686 24.632C58.6713 24.5467 58.01 24.4507 57.2846 24.344C56.5593 24.2373 55.8233 24.0987 55.0766 23.928C54.3513 23.736 53.6793 23.4587 53.0606 23.096C52.4633 22.712 51.9833 22.2 51.6206 21.56C51.258 20.92 51.0766 20.1093 51.0766 19.128C51.0766 18.0187 51.3966 17.0373 52.0366 16.184C52.698 15.3093 53.658 14.6267 54.9166 14.136C56.1753 13.624 57.7113 13.368 59.5246 13.368C60.7406 13.368 61.9673 13.496 63.2046 13.752C64.4633 13.9867 65.5193 14.3493 66.3726 14.84L64.5486 18.968C63.6953 18.4773 62.842 18.1467 61.9886 17.976C61.1353 17.784 60.3246 17.688 59.5566 17.688C58.5326 17.688 57.8073 17.8053 57.3806 18.04C56.9753 18.2747 56.7726 18.5627 56.7726 18.904C56.7726 19.2453 56.954 19.512 57.3166 19.704C57.6793 19.8747 58.1593 20.0133 58.7566 20.12C59.3753 20.2053 60.0473 20.3013 60.7726 20.408C61.498 20.4933 62.2233 20.632 62.9486 20.824C63.6953 21.016 64.3673 21.304 64.9646 21.688C65.5833 22.0507 66.074 22.552 66.4366 23.192C66.7993 23.8107 66.9806 24.6107 66.9806 25.592C66.9806 26.6587 66.65 27.6187 65.9886 28.472C65.3486 29.3253 64.3886 30.008 63.1086 30.52C61.85 31.032 60.282 31.288 58.4046 31.288ZM74.6246 31.288C73.1526 31.288 71.7126 31.1173 70.3046 30.776C68.918 30.4347 67.798 30.008 66.9446 29.496L68.7686 25.336C69.5793 25.8267 70.5286 26.2213 71.6166 26.52C72.7046 26.7973 73.7713 26.936 74.8166 26.936C75.8406 26.936 76.5446 26.8293 76.9286 26.616C77.334 26.4027 77.5366 26.1147 77.5366 25.752C77.5366 25.4107 77.3446 25.1653 76.9606 25.016C76.598 24.8453 76.1073 24.7173 75.4886 24.632C74.8913 24.5467 74.23 24.4507 73.5046 24.344C72.7793 24.2373 72.0433 24.0987 71.2966 23.928C70.5713 23.736 69.8993 23.4587 69.2806 23.096C68.6833 22.712 68.2033 22.2 67.8406 21.56C67.478 20.92 67.2966 20.1093 67.2966 19.128C67.2966 18.0187 67.6166 17.0373 68.2566 16.184C68.918 15.3093 69.878 14.6267 71.1366 14.136C72.3953 13.624 73.9313 13.368 75.7446 13.368C76.9606 13.368 78.1873 13.496 79.4246 13.752C80.6833 13.9867 81.7393 14.3493 82.5926 14.84L80.7686 18.968C79.9153 18.4773 79.062 18.1467 78.2086 17.976C77.3553 17.784 76.5446 17.688 75.7766 17.688C74.7526 17.688 74.0273 17.8053 73.6006 18.04C73.1953 18.2747 72.9926 18.5627 72.9926 18.904C72.9926 19.2453 73.174 19.512 73.5366 19.704C73.8993 19.8747 74.3793 20.0133 74.9766 20.12C75.5953 20.2053 76.2673 20.3013 76.9926 20.408C77.718 20.4933 78.4433 20.632 79.1686 20.824C79.9153 21.016 80.5873 21.304 81.1846 21.688C81.8033 22.0507 82.294 22.552 82.6566 23.192C83.0193 23.8107 83.2006 24.6107 83.2006 25.592C83.2006 26.6587 82.87 27.6187 82.2086 28.472C81.5686 29.3253 80.6086 30.008 79.3286 30.52C78.07 31.032 76.502 31.288 74.6246 31.288ZM87.2041 37.496C86.2868 37.496 85.3588 37.3467 84.4201 37.048C83.5028 36.7707 82.7561 36.3973 82.1801 35.928L84.2921 31.672C84.6548 31.992 85.0708 32.2373 85.5401 32.408C86.0308 32.6 86.5108 32.696 86.9801 32.696C87.6414 32.696 88.1641 32.5467 88.5481 32.248C88.9321 31.9493 89.2628 31.48 89.5401 30.84L90.3401 28.824L90.8201 28.216L96.7081 13.656H102.5L95.0121 31.704C94.4148 33.1973 93.7214 34.36 92.9321 35.192C92.1641 36.0453 91.3001 36.6427 90.3401 36.984C89.4014 37.3253 88.3561 37.496 87.2041 37.496ZM89.5721 31.736L81.9241 13.656H88.1641L93.7961 27.672L89.5721 31.736ZM102.792 31V7.256H108.872V31H102.792ZM122.135 31V27.768L121.719 26.968V21.016C121.719 20.056 121.42 19.32 120.823 18.808C120.247 18.2747 119.319 18.008 118.039 18.008C117.207 18.008 116.364 18.1467 115.511 18.424C114.658 18.68 113.932 19.0427 113.335 19.512L111.287 15.384C112.268 14.744 113.442 14.2533 114.807 13.912C116.194 13.5493 117.57 13.368 118.935 13.368C121.751 13.368 123.927 14.0187 125.463 15.32C127.02 16.6 127.799 18.616 127.799 21.368V31H122.135ZM117.015 31.288C115.628 31.288 114.455 31.0533 113.495 30.584C112.535 30.1147 111.799 29.4747 111.287 28.664C110.796 27.8533 110.551 26.9467 110.551 25.944C110.551 24.8773 110.818 23.96 111.351 23.192C111.906 22.4027 112.748 21.8053 113.879 21.4C115.01 20.9733 116.471 20.76 118.263 20.76H122.359V23.928H119.095C118.114 23.928 117.42 24.088 117.015 24.408C116.631 24.728 116.439 25.1547 116.439 25.688C116.439 26.2213 116.642 26.648 117.047 26.968C117.452 27.288 118.007 27.448 118.711 27.448C119.372 27.448 119.97 27.288 120.503 26.968C121.058 26.6267 121.463 26.1147 121.719 25.432L122.551 27.672C122.231 28.8667 121.602 29.7733 120.663 30.392C119.746 30.9893 118.53 31.288 117.015 31.288ZM141.653 13.368C142.997 13.368 144.213 13.6453 145.301 14.2C146.389 14.7333 147.242 15.5653 147.861 16.696C148.501 17.8267 148.821 19.288 148.821 21.08V31H142.741V22.072C142.741 20.8347 142.485 19.9387 141.973 19.384C141.482 18.808 140.789 18.52 139.893 18.52C139.253 18.52 138.666 18.6693 138.133 18.968C137.6 19.2453 137.184 19.6827 136.885 20.28C136.586 20.8773 136.437 21.656 136.437 22.616V31H130.357V13.656H136.149V18.584L135.029 17.144C135.69 15.8853 136.597 14.9467 137.749 14.328C138.901 13.688 140.202 13.368 141.653 13.368ZM159.129 31.288C157.55 31.288 156.11 30.9253 154.809 30.2C153.529 29.4533 152.505 28.4187 151.737 27.096C150.969 25.752 150.585 24.152 150.585 22.296C150.585 20.4613 150.969 18.8827 151.737 17.56C152.505 16.216 153.529 15.1813 154.809 14.456C156.11 13.7307 157.55 13.368 159.129 13.368C160.622 13.368 161.881 13.688 162.905 14.328C163.95 14.968 164.74 15.9493 165.273 17.272C165.806 18.5947 166.073 20.2693 166.073 22.296C166.073 24.3653 165.817 26.0613 165.305 27.384C164.793 28.7067 164.025 29.688 163.001 30.328C161.977 30.968 160.686 31.288 159.129 31.288ZM160.409 26.456C161.092 26.456 161.7 26.296 162.233 25.976C162.788 25.656 163.225 25.1867 163.545 24.568C163.865 23.928 164.025 23.1707 164.025 22.296C164.025 21.4213 163.865 20.6853 163.545 20.088C163.225 19.4693 162.788 19 162.233 18.68C161.7 18.36 161.092 18.2 160.409 18.2C159.705 18.2 159.076 18.36 158.521 18.68C157.988 19 157.561 19.4693 157.241 20.088C156.921 20.6853 156.761 21.4213 156.761 22.296C156.761 23.1707 156.921 23.928 157.241 24.568C157.561 25.1867 157.988 25.656 158.521 25.976C159.076 26.296 159.705 26.456 160.409 26.456ZM164.217 31V28.024L164.249 22.296L163.929 16.568V7.256H170.009V31H164.217Z" fill="#0F172A"/>
<path d="M40.7721 31.288C38.8735 31.288 37.1881 30.904 35.7161 30.136C34.2441 29.368 33.0815 28.312 32.2281 26.968C31.3961 25.6027 30.9801 24.0453 30.9801 22.296C30.9801 20.5467 31.3961 19 32.2281 17.656C33.0815 16.312 34.2441 15.2667 35.7161 14.52C37.1881 13.752 38.8735 13.368 40.7721 13.368C42.6708 13.368 44.3561 13.752 45.8281 14.52C47.3215 15.2667 48.4841 16.312 49.3161 17.656C50.1481 19 50.5641 20.5467 50.5641 22.296C50.5641 24.0453 50.1481 25.6027 49.3161 26.968C48.4841 28.312 47.3215 29.368 45.8281 30.136C44.3561 30.904 42.6708 31.288 40.7721 31.288ZM40.7721 26.456C41.4761 26.456 42.0948 26.296 42.6281 25.976C43.1828 25.656 43.6201 25.1867 43.9401 24.568C44.2601 23.928 44.4201 23.1707 44.4201 22.296C44.4201 21.4213 44.2601 20.6853 43.9401 20.088C43.6201 19.4693 43.1828 19 42.6281 18.68C42.0948 18.36 41.4761 18.2 40.7721 18.2C40.0895 18.2 39.4708 18.36 38.9161 18.68C38.3828 19 37.9455 19.4693 37.6041 20.088C37.2841 20.6853 37.1241 21.4213 37.1241 22.296C37.1241 23.1707 37.2841 23.928 37.6041 24.568C37.9455 25.1867 38.3828 25.656 38.9161 25.976C39.4708 26.296 40.0895 26.456 40.7721 26.456Z" fill="#7E4FED"/>
</svg>
